<svg id="visual" viewBox="0 0 900 600" width="900" height="600" xmlns="http://www.w3.org/2000/svg" xmlns:xlink="http://www.w3.org/1999/xlink" version="1.1"><rect x="0" y="0" width="900" height="600" fill="#001220"></rect><path d="M0 209L15 206.7C30 204.3 60 199.7 90 198.7C120 197.7 150 200.3 180 216.3C210 232.3 240 261.7 270 264C300 266.3 330 241.7 360 236.3C390 231 420 245 450 236.5C480 228 510 197 540 187C570 177 600 188 630 205.7C660 223.3 690 247.7 720 240.8C750 234 780 196 810 185.7C840 175.3 870 192.7 885 201.3L900 210L900 601L885 601C870 601 840 601 810 601C780 601 750 601 720 601C690 601 660 601 630 601C600 601 570 601 540 601C510 601 480 601 450 601C420 601 390 601 360 601C330 601 300 601 270 601C240 601 210 601 180 601C150 601 120 601 90 601C60 601 30 601 15 601L0 601Z" fill="#715df2"></path><path d="M0 248L15 246C30 244 60 240 90 252.7C120 265.3 150 294.7 180 315.8C210 337 240 350 270 341.5C300 333 330 303 360 283C390 263 420 253 450 268.3C480 283.7 510 324.3 540 341C570 357.7 600 350.3 630 327.3C660 304.3 690 265.7 720 267.8C750 270 780 313 810 329.8C840 346.7 870 337.3 885 332.7L900 328L900 601L885 601C870 601 840 601 810 601C780 601 750 601 720 601C690 601 660 601 630 601C600 601 570 601 540 601C510 601 480 601 450 601C420 601 390 601 360 601C330 601 300 601 270 601C240 601 210 601 180 601C150 601 120 601 90 601C60 601 30 601 15 601L0 601Z" fill="#6c50f6"></path><path d="M0 312L15 329.2C30 346.3 60 380.7 90 399.5C120 418.3 150 421.7 180 403.3C210 385 240 345 270 342.7C300 340.3 330 375.7 360 386.7C390 397.7 420 384.3 450 385.3C480 386.3 510 401.7 540 411.2C570 420.7 600 424.3 630 419.5C660 414.7 690 401.3 720 391.2C750 381 780 374 810 372.2C840 370.3 870 373.7 885 375.3L900 377L900 601L885 601C870 601 840 601 810 601C780 601 750 601 720 601C690 601 660 601 630 601C600 601 570 601 540 601C510 601 480 601 450 601C420 601 390 601 360 601C330 601 300 601 270 601C240 601 210 601 180 601C150 601 120 601 90 601C60 601 30 601 15 601L0 601Z" fill="#6940fa"></path><path d="M0 386L15 401.5C30 417 60 448 90 457.2C120 466.3 150 453.7 180 448.3C210 443 240 445 270 443.7C300 442.3 330 437.7 360 441.8C390 446 420 459 450 459.7C480 460.3 510 448.7 540 440.5C570 432.3 600 427.7 630 427.5C660 427.3 690 431.7 720 430.3C750 429 780 422 810 429.7C840 437.3 870 459.7 885 470.8L900 482L900 601L885 601C870 601 840 601 810 601C780 601 750 601 720 601C690 601 660 601 630 601C600 601 570 601 540 601C510 601 480 601 450 601C420 601 390 601 360 601C330 601 300 601 270 601C240 601 210 601 180 601C150 601 120 601 90 601C60 601 30 601 15 601L0 601Z" fill="#672bfd"></path><path d="M0 522L15 524.3C30 526.7 60 531.3 90 531.2C120 531 150 526 180 522.2C210 518.3 240 515.7 270 517C300 518.3 330 523.7 360 516.3C390 509 420 489 450 490.2C480 491.3 510 513.7 540 525.8C570 538 600 540 630 532.2C660 524.3 690 506.7 720 499.2C750 491.7 780 494.3 810 491C840 487.7 870 478.3 885 473.7L900 469L900 601L885 601C870 601 840 601 810 601C780 601 750 601 720 601C690 601 660 601 630 601C600 601 570 601 540 601C510 601 480 601 450 601C420 601 390 601 360 601C330 601 300 601 270 601C240 601 210 601 180 601C150 601 120 601 90 601C60 601 30 601 15 601L0 601Z" fill="#6600ff"></path></svg>